<?xml version="1.0" encoding="utf-8"?>
<!-- Generator: Adobe Illustrator 28.3.0, SVG Export Plug-In . SVG Version: 6.00 Build 0)  -->
<svg version="1.1" id="Layer_1" xmlns="http://www.w3.org/2000/svg" xmlns:xlink="http://www.w3.org/1999/xlink" x="0px" y="0px"
	 viewBox="0 0 192 192" style="enable-background:new 0 0 192 192;" xml:space="preserve">
<style type="text/css">
	.st0{fill:#222222;}
	.st1{fill:#FFFFFF;}
</style>
<path class="st0" d="M177,192H15c-8.28,0-15-6.72-15-15V15C0,6.72,6.72,0,15,0h162c8.28,0,15,6.72,15,15v162
	C192,185.28,185.28,192,177,192z"/>
<g>
	<path class="st1" d="M108.88,99l7.06-19.56c3.84-10.86,5.76-18.3,5.76-22.33c0-4.78-2.71-7.54-8.13-8.29
		c-2.42-0.4-3.63-1.24-3.63-2.5c0-1.61,1.18-2.42,3.55-2.42c0.92,0,2.59,0.14,5.02,0.43c2.54,0.29,5.54,0.43,9,0.43
		c2.31,0,5.1-0.17,8.39-0.52c2.77-0.35,4.35-0.52,4.76-0.52c2.77,0,4.15,0.85,4.15,2.54c0,0.96-0.9,1.67-2.69,2.12
		c-4.46,1.22-7.76,3.7-9.9,7.43c-2.14,3.74-6.62,15.34-13.43,34.79c-8.87,25.27-15.3,42.17-19.3,50.69
		c-4,8.52-8.43,14.59-13.3,18.22c-4.86,3.63-10.06,5.44-15.58,5.44c-4.95,0-8.82-1.22-11.61-3.67c-2.79-2.45-4.19-5.6-4.19-9.45
		c0-2.47,0.99-4.82,2.98-7.03c1.98-2.21,4.59-3.32,7.81-3.32c5.18,0,8.46,3.08,9.84,9.23c0.75,3.11,1.9,4.66,3.46,4.66
		c3.92,0,8.14-3.99,12.66-11.96c4.52-7.98,6.79-13.92,6.79-17.84c0-1.96-1.8-7.24-5.39-15.84c-3.59-8.61-8.42-19.76-14.48-33.46
		c-6.06-13.7-9.93-21.57-11.61-23.62c-1.68-2.04-3.62-3.33-5.82-3.85c-2.26-0.46-3.39-1.26-3.39-2.42c0-1.67,1.47-2.5,4.41-2.5
		c0.69,0,3.03,0.2,7,0.6c2.42,0.29,5.53,0.43,9.34,0.43c6.28,0,11.79-0.23,16.51-0.69l3.72-0.35c2.31,0,3.46,0.78,3.46,2.33
		c0,1.5-1.38,2.5-4.15,3.02c-1.84,0.35-3.29,1.14-4.32,2.38c-1.04,1.24-1.56,2.43-1.56,3.59c0,1.26,1.53,6.05,4.59,14.37
		C99.7,77.89,103.78,87.7,108.88,99z"/>
</g>
</svg>
